<svg xmlns="http://www.w3.org/2000/svg" version="1.0" width="450.000000pt" height="450.000000pt"
    viewBox="0 0 450.000000 450.000000" preserveAspectRatio="xMidYMid meet"
    style="&#10;    /* background: #0E0E0E; */&#10;">
    <g transform="translate(0.000000,450.000000) scale(0.100000,-0.100000)" fill="#ffffff"
        stroke="none">
        <path
            d="M1808 3421 c-124 -40 -239 -146 -263 -243 -7 -27 -6 -27 51 -30 57 -3 59 -2 104 43 58 58 142 99 217 106 50 4 63 1 93 -19 28 -19 36 -31 38 -61 4 -43 -7 -46 -74 -23 -126 44 -293 -89 -329 -263 -7 -34 -7 -34 25 -27 18 3 45 6 60 6 24 0 32 8 54 54 18 36 39 63 63 77 41 26 108 30 145 11 22 -12 29 -11 63 12 35 24 93 46 123 46 21 0 16 156 -7 206 -21 46 -72 90 -128 110 -54 19 -167 16 -235 -5z"
            style="&#10;    fill: #00FF80;&#10;" />
        <path
            d="M2470 3431 c-63 -20 -122 -66 -149 -118 -6 -12 -11 -62 -11 -112 l0 -90 38 -7 c40 -7 88 -28 112 -50 13 -11 23 -10 62 3 38 14 52 15 87 5 48 -15 110 -75 118 -115 7 -32 9 -34 77 -40 l48 -5 -6 40 c-26 165 -226 305 -346 243 -26 -13 -30 -13 -44 1 -19 18 -20 25 -5 58 42 91 227 64 345 -52 49 -47 49 -48 107 -44 34 2 57 8 57 15 0 23 -61 118 -99 156 -52 52 -113 87 -186 105 -62 17 -162 20 -205 7z"
            style="&#10;    fill: #FF8000;&#10;" />
        <path
            d="M1555 3091 c-79 -20 -139 -75 -182 -166 -24 -51 -28 -73 -28 -150 0 -107 20 -174 70 -233 69 -80 192 -114 280 -78 l34 15 -32 49 c-30 46 -36 50 -80 54 -54 6 -100 41 -123 95 -31 72 -8 190 49 247 19 19 46 80 68 155 5 18 -15 22 -56 12z"
            style="&#10;    fill: #00FF80;&#10;" />
        <path
            d="M2880 3097 c0 -3 9 -24 20 -48 11 -24 20 -54 20 -66 0 -12 14 -37 31 -54 122 -125 71 -352 -79 -351 -33 0 -40 -5 -70 -49 l-33 -50 35 -14 c80 -34 190 -9 256 58 55 55 79 104 89 185 25 201 -69 358 -231 387 -21 4 -38 5 -38 2z"
            style="&#10;    fill: #FF8000;&#10;" />
        <path
            d="M2123 2986 c-52 -25 -63 -39 -63 -86 0 -33 -26 -64 -47 -56 -8 3 -17 6 -19 6 -2 0 -4 15 -4 34 0 48 -33 86 -75 86 -64 0 -94 -76 -61 -153 32 -75 94 -106 217 -107 40 0 63 -6 81 -20 l25 -19 6 97 c9 133 9 230 -1 236 -5 3 -31 -6 -59 -18z"
            style="&#10;    fill: #007FFF;&#10;" />
        <path
            d="M2310 2835 l0 -166 30 23 c25 18 48 23 125 28 109 6 137 20 173 91 27 52 24 100 -9 135 -45 47 -106 19 -116 -53 -9 -70 -73 -69 -73 1 0 41 -24 75 -66 92 -66 27 -64 31 -64 -151z"
            style="&#10;    fill: #FF007F;&#10;" />
        <path
            d="M1603 2820 c-56 -34 -56 -109 0 -140 26 -14 28 -14 52 12 30 33 51 28 60 -15 25 -119 150 -210 288 -210 70 0 94 -14 68 -40 -6 -6 -11 -46 -11 -96 0 -128 -34 -180 -117 -181 -44 0 -95 44 -91 79 3 25 6 26 58 26 l55 0 3 51 3 52 -47 7 c-26 3 -62 14 -80 23 -33 15 -34 15 -73 -16 -22 -18 -52 -37 -66 -44 -24 -11 -29 -10 -45 10 -13 16 -29 22 -57 22 -22 0 -61 11 -88 25 -27 13 -50 23 -51 22 -2 -1 5 -21 15 -43 39 -86 124 -154 194 -154 29 0 35 -4 46 -36 17 -48 75 -110 125 -137 86 -44 208 -22 280 49 58 58 61 73 61 271 0 178 0 182 -24 207 -21 23 -33 26 -86 26 -129 0 -216 47 -283 154 -60 94 -120 119 -189 76z"
            style="&#10;    fill: #007FFF;&#10;" />
        <path
            d="M2785 2826 c-35 -16 -52 -34 -88 -98 -53 -92 -140 -138 -263 -138 -52 0 -68 -4 -91 -24 l-28 -24 -3 -164 c-4 -187 3 -221 56 -280 49 -54 102 -78 178 -78 105 0 192 60 234 160 10 24 18 30 43 30 42 0 111 35 142 72 29 34 69 108 62 114 -2 2 -24 -4 -48 -15 -24 -10 -64 -22 -89 -26 -24 -4 -50 -14 -56 -23 -15 -21 -51 -10 -100 32 l-40 34 -55 -19 c-30 -10 -66 -18 -81 -19 -21 0 -29 -6 -34 -26 -4 -15 -3 -39 2 -53 9 -24 15 -26 64 -26 52 0 55 -2 58 -26 4 -36 -47 -79 -93 -79 -87 0 -115 41 -115 166 0 64 -4 92 -15 104 -30 34 -9 50 65 50 141 0 257 79 289 197 14 51 34 60 64 27 20 -21 27 -23 50 -15 52 20 61 75 20 121 -33 36 -84 47 -128 26z"
            style="&#10;    fill: #FF007F;&#10;" />
        <path
            d="M1157 2572 c-15 -17 -17 -59 -17 -399 0 -292 3 -383 13 -390 6 -6 71 -13 142 -16 362 -15 649 -180 770 -442 48 -104 100 -145 185 -145 89 0 134 39 196 167 116 243 410 405 759 420 102 4 133 9 143 21 9 12 12 106 12 389 0 360 -1 374 -20 393 -11 11 -33 20 -50 20 -17 0 -39 -9 -50 -20 -19 -19 -20 -33 -20 -214 l0 -193 -89 -12 c-109 -14 -228 -47 -341 -96 -326 -141 -335 -143 -417 -105 l-43 19 0 -206 0 -205 43 58 c58 78 149 167 221 216 144 99 361 176 574 203 l52 7 0 -66 c0 -75 6 -70 -112 -81 -38 -3 -110 -16 -161 -30 -312 -81 -559 -269 -638 -486 -16 -45 -28 -61 -45 -65 -38 -10 -51 1 -69 56 -39 119 -158 257 -300 349 -135 88 -350 163 -503 176 -118 11 -112 6 -112 81 l0 66 53 -7 c223 -29 435 -105 582 -210 69 -49 179 -160 220 -222 15 -24 29 -43 31 -43 2 0 4 92 4 205 l0 206 -32 -18 c-22 -11 -56 -17 -98 -17 -56 -1 -78 6 -160 43 -254 116 -387 160 -542 176 l-58 6 0 188 c0 175 -1 190 -21 215 -25 32 -77 36 -102 8z"
            style="&#10;    /* color: black; */&#10;    /* background: black; */&#10;    fill: #E5CBBA;&#10;" />
        <path
            d="M1073 1608 c-30 -14 -44 -59 -29 -89 11 -24 13 -24 221 -30 196 -6 331 -23 403 -50 19 -7 35 -2 83 27 32 20 59 40 59 44 0 21 -174 75 -307 95 -113 17 -397 19 -430 3z"
            style="&#10;    fill: #C9AD95;&#10;" />
        <path
            d="M2990 1605 c-85 -14 -262 -66 -290 -86 -11 -8 -12 -12 -2 -16 7 -2 34 -20 60 -38 l48 -33 74 20 c100 25 233 37 410 38 100 0 150 4 158 12 22 22 14 75 -14 97 -25 19 -39 21 -193 20 -91 -1 -204 -7 -251 -14z"
            style="&#10;    fill: #C9AD95;&#10;" />
    </g>
</svg>